<?xml version="1.0" encoding="UTF-8" standalone="no"?>
<svg
   version="1.0"
   viewBox="0 0 476.60147 716.63922"
   preserveAspectRatio="xMidYMid"
   id="svg5"
   width="476.60147"
   height="716.63922"
   xmlns="http://www.w3.org/2000/svg"
   xmlns:svg="http://www.w3.org/2000/svg">
  <defs
     id="defs5" />
  <g
     transform="matrix(0.1,0,0,-0.1,-183.7,738.63923)"
     fill="#000000"
     stroke="none"
     id="g5"
     style="fill:#5e72e4;fill-opacity:1">
    <path
       d="m 2795,7384 c -11,-3 -32,-10 -47,-16 l -28,-10 v -217 c 0,-231 3,-256 28,-267 10,-4 244,-11 522,-15 538,-7 562,-9 783,-65 126,-32 190,-60 307,-138 115,-77 239,-203 316,-321 30,-47 102,-179 160,-295 174,-349 201,-368 789,-574 121,-42 226,-80 232,-84 8,-5 7,-22 -3,-62 -19,-70 -11,-128 26,-206 38,-78 99,-147 162,-183 l 49,-28 -51,-100 c -66,-133 -126,-213 -202,-269 -120,-89 -236,-130 -404,-142 l -96,-7 -47,-115 c -26,-63 -56,-132 -67,-153 -18,-38 -18,-39 1,-54 51,-38 429,16 573,82 161,75 312,196 405,326 58,82 145,247 248,474 126,278 152,350 152,421 1,129 -48,160 -448,289 -736,237 -736,237 -750,259 -8,12 -40,96 -70,186 -133,394 -316,678 -575,894 -220,184 -465,302 -760,367 -102,23 -120,23 -645,25 -297,1 -549,0 -560,-2 z"
       id="path1"
       style="fill:#5e72e4;fill-opacity:1" />
    <path
       d="m 2106,6473 -269,-3 7,-1338 c 7,-1219 14,-2129 33,-4126 l 6,-708 291,6 c 656,15 854,30 1066,84 349,89 647,254 899,497 394,381 590,827 591,1347 1,473 -187,921 -530,1266 -211,212 -410,328 -742,432 -214,66 -257,71 -690,77 l -387,6 -5,51 c -3,28 -8,341 -11,696 -3,355 -8,765 -12,912 l -6,266 214,-4 c 577,-14 712,-75 998,-451 120,-158 173,-217 244,-269 74,-55 110,-68 481,-174 169,-49 310,-90 312,-93 2,-2 -1,-19 -6,-38 -32,-110 14,-221 126,-301 52,-37 52,-37 -10,-148 -85,-155 -225,-258 -363,-267 -54,-4 -110,3 -270,36 -112,23 -231,44 -266,48 -81,7 -223,-12 -310,-42 -72,-25 -232,-124 -219,-136 4,-3 203,-55 442,-115 433,-108 436,-109 555,-109 145,0 213,16 344,82 118,59 242,172 304,277 50,86 230,465 281,592 42,108 45,148 11,213 -29,58 -59,81 -141,109 -72,25 -621,187 -787,232 -65,18 -128,41 -141,51 -13,10 -55,78 -92,151 -121,234 -236,393 -386,533 -190,177 -433,300 -673,339 -101,16 -457,24 -889,19 z M 3168,3459 c 91,-12 233,-58 312,-100 141,-75 478,-365 543,-467 61,-95 118,-230 148,-347 27,-107 31,-137 32,-275 3,-402 -105,-665 -387,-945 -236,-235 -467,-362 -776,-425 -87,-18 -152,-23 -371,-27 -232,-5 -267,-4 -272,10 -3,8 -9,593 -13,1300 l -7,1286 74,4 c 124,7 635,-3 717,-14 z"
       id="path2"
       style="fill:#5e72e4;fill-opacity:1" />
    <path
       d="m 4502,5964 c -62,-31 -98,-71 -112,-126 -29,-106 33,-216 138,-243 192,-50 337,194 196,330 -37,35 -101,64 -140,65 -16,0 -53,-12 -82,-26 z"
       id="path3"
       style="fill:#5e72e4;fill-opacity:1" />
    <path
       d="m 3325,5361 c -136,-62 -157,-257 -39,-348 52,-39 151,-44 209,-11 60,35 98,96 102,165 3,50 0,65 -26,109 -23,40 -42,58 -83,78 -61,31 -108,33 -163,7 z"
       id="path4"
       style="fill:#5e72e4;fill-opacity:1" />
    <path
       d="m 4888,3770 c -20,-11 -70,-44 -111,-73 -41,-29 -109,-69 -151,-87 -42,-18 -76,-36 -76,-40 0,-3 18,-24 41,-45 23,-22 67,-74 99,-115 88,-114 120,-142 247,-210 147,-78 223,-132 314,-223 186,-185 309,-426 359,-707 18,-96 13,-269 -10,-405 -35,-202 -75,-312 -169,-464 -202,-327 -488,-523 -882,-606 -68,-14 -124,-27 -125,-28 -139,-211 -250,-328 -431,-455 -45,-31 -82,-60 -83,-63 0,-10 153,-29 235,-29 124,0 356,18 468,36 152,24 316,77 472,153 322,157 561,363 756,655 187,278 271,528 300,892 37,458 -98,893 -388,1251 -128,158 -307,316 -490,433 -82,51 -295,150 -323,149 -8,0 -31,-9 -52,-19 z"
       id="path5"
       style="fill:#5e72e4;fill-opacity:1" />
  </g>
</svg>
